HIERARCHY
ROOT Hips
{
  OFFSET 0 0 0
  CHANNELS 6 Xposition Yposition Zposition Zrotation Xrotation Yrotation
  JOINT Spine
  {
    OFFSET 0 10.1816 0.131521
    CHANNELS 3 Zrotation Xrotation Yrotation
    JOINT Spine1
    {
      OFFSET 0 10.0835 -1.00081
      CHANNELS 3 Zrotation Xrotation Yrotation
      JOINT Spine2
      {
        OFFSET 0 9.1 -1.37342
        CHANNELS 3 Zrotation Xrotation Yrotation
        JOINT Neck
        {
          OFFSET 0 16.6717 -2.51617
          CHANNELS 3 Zrotation Xrotation Yrotation
          JOINT Head
          {
            OFFSET 0 9.61787 1.68501
            CHANNELS 3 Zrotation Xrotation Yrotation
            JOINT HeadTop_End
            {
              OFFSET 0 17.8152 2.58499
              CHANNELS 3 Zrotation Xrotation Yrotation
              End Site
              {
                OFFSET 0 0 0
              }
            }
            JOINT LeftEye
            {
              OFFSET 3.06756 6.40951 9.28355
              CHANNELS 3 Zrotation Xrotation Yrotation
              End Site
              {
                OFFSET 0 0 0
              }
            }
            JOINT RightEye
            {
              OFFSET -3.06755 6.4095 9.28355
              CHANNELS 3 Zrotation Xrotation Yrotation
              End Site
              {
                OFFSET 0 0 0
              }
            }
          }
        }
        JOINT LeftShoulder
        {
          OFFSET 4.57045 10.946 -2.62799
          CHANNELS 3 Zrotation Xrotation Yrotation
          JOINT LeftArm
          {
            OFFSET 10.5924 -0.524597 -2.23212
            CHANNELS 3 Zrotation Xrotation Yrotation
            JOINT LeftForeArm
            {
              OFFSET 27.8415 -0.000117739 8.70806e-05
              CHANNELS 3 Zrotation Xrotation Yrotation
              JOINT LeftHand
              {
                OFFSET 28.3288 -3.04892e-05 3.47247e-05
                CHANNELS 3 Zrotation Xrotation Yrotation
                JOINT LeftHandThumb1
                {
                  OFFSET 2.46613 -1.57504 2.68241
                  CHANNELS 3 Zrotation Xrotation Yrotation
                  JOINT LeftHandThumb2
                  {
                    OFFSET 3.22981 -1.86469 1.86468
                    CHANNELS 3 Zrotation Xrotation Yrotation
                    JOINT LeftHandThumb3
                    {
                      OFFSET 2.65257 -1.53149 1.53147
                      CHANNELS 3 Zrotation Xrotation Yrotation
                      JOINT LeftHandThumb4
                      {
                        OFFSET 1.95457 -1.12851 1.12849
                        CHANNELS 3 Zrotation Xrotation Yrotation
                        End Site
                        {
                          OFFSET 0 0 0
                        }
                      }
                    }
                  }
                }
                JOINT LeftHandIndex1
                {
                  OFFSET 9.1093 -0.517075 2.26007
                  CHANNELS 3 Zrotation Xrotation Yrotation
                  JOINT LeftHandIndex2
                  {
                    OFFSET 3.67641 -1.52551e-05 2.85811e-05
                    CHANNELS 3 Zrotation Xrotation Yrotation
                    JOINT LeftHandIndex3
                    {
                      OFFSET 2.88306 4.24836e-05 -4.30737e-05
                      CHANNELS 3 Zrotation Xrotation Yrotation
                      JOINT LeftHandIndex4
                      {
                        OFFSET 2.39272 3.2663e-05 3.4003e-05
                        CHANNELS 3 Zrotation Xrotation Yrotation
                        End Site
                        {
                          OFFSET 0 0 0
                        }
                      }
                    }
                  }
                }
                JOINT LeftHandMiddle1
                {
                  OFFSET 9.5334 -3.0508e-05 1.2993e-05
                  CHANNELS 3 Zrotation Xrotation Yrotation
                  JOINT LeftHandMiddle2
                  {
                    OFFSET 3.69823 0 1.76108e-05
                    CHANNELS 3 Zrotation Xrotation Yrotation
                    JOINT LeftHandMiddle3
                    {
                      OFFSET 2.95092 -3.05146e-05 1.62831e-05
                      CHANNELS 3 Zrotation Xrotation Yrotation
                      JOINT LeftHandMiddle4
                      {
                        OFFSET 2.8339 -4.57735e-05 -1.04036e-05
                        CHANNELS 3 Zrotation Xrotation Yrotation
                        End Site
                        {
                          OFFSET 0 0 0
                        }
                      }
                    }
                  }
                }
                JOINT LeftHandRing1
                {
                  OFFSET 9.10452 -0.04393 -1.86509
                  CHANNELS 3 Zrotation Xrotation Yrotation
                  JOINT LeftHandRing2
                  {
                    OFFSET 3.15403 -1.52556e-05 0
                    CHANNELS 3 Zrotation Xrotation Yrotation
                    JOINT LeftHandRing3
                    {
                      OFFSET 2.93767 -4.57734e-05 0
                      CHANNELS 3 Zrotation Xrotation Yrotation
                      JOINT LeftHandRing4
                      {
                        OFFSET 2.64745 -4.57737e-05 0
                        CHANNELS 3 Zrotation Xrotation Yrotation
                        End Site
                        {
                          OFFSET 0 0 0
                        }
                      }
                    }
                  }
                }
                JOINT LeftHandPinky1
                {
                  OFFSET 8.07777 -0.488663 -3.80607
                  CHANNELS 3 Zrotation Xrotation Yrotation
                  JOINT LeftHandPinky2
                  {
                    OFFSET 3.60004 0 -2.62447e-05
                    CHANNELS 3 Zrotation Xrotation Yrotation
                    JOINT LeftHandPinky3
                    {
                      OFFSET 2.11421 1.52588e-05 0
                      CHANNELS 3 Zrotation Xrotation Yrotation
                      JOINT LeftHandPinky4
                      {
                        OFFSET 1.97568 1.4259e-05 -4.41409e-05
                        CHANNELS 3 Zrotation Xrotation Yrotation
                        End Site
                        {
                          OFFSET 0 0 0
                        }
                      }
                    }
                  }
                }
              }
            }
          }
        }
        JOINT RightShoulder
        {
          OFFSET -4.56997 10.9462 -2.62802
          CHANNELS 3 Zrotation Xrotation Yrotation
          JOINT RightArm
          {
            OFFSET -10.5928 -0.524796 -2.2321
            CHANNELS 3 Zrotation Xrotation Yrotation
            JOINT RightForeArm
            {
              OFFSET -27.8415 -3.05176e-05 1.19209e-05
              CHANNELS 3 Zrotation Xrotation Yrotation
              JOINT RightHand
              {
                OFFSET -28.3288 0 5.57899e-05
                CHANNELS 3 Zrotation Xrotation Yrotation
                JOINT RightHandPinky1
                {
                  OFFSET -8.07668 -0.488464 -3.80601
                  CHANNELS 3 Zrotation Xrotation Yrotation
                  JOINT RightHandPinky2
                  {
                    OFFSET -3.60003 4.57764e-05 5.05447e-05
                    CHANNELS 3 Zrotation Xrotation Yrotation
                    JOINT RightHandPinky3
                    {
                      OFFSET -2.11421 1.52588e-05 1.52588e-05
                      CHANNELS 3 Zrotation Xrotation Yrotation
                      JOINT RightHandPinky4
                      {
                        OFFSET -1.97569 -3.05176e-05 0
                        CHANNELS 3 Zrotation Xrotation Yrotation
                        End Site
                        {
                          OFFSET 0 0 0
                        }
                      }
                    }
                  }
                }
                JOINT RightHandRing1
                {
                  OFFSET -9.10358 -0.0439148 -1.86507
                  CHANNELS 3 Zrotation Xrotation Yrotation
                  JOINT RightHandRing2
                  {
                    OFFSET -3.15403 1.52588e-05 4.86374e-05
                    CHANNELS 3 Zrotation Xrotation Yrotation
                    JOINT RightHandRing3
                    {
                      OFFSET -2.93768 -3.05176e-05 -3.95775e-05
                      CHANNELS 3 Zrotation Xrotation Yrotation
                      JOINT RightHandRing4
                      {
                        OFFSET -2.64745 1.52588e-05 0
                        CHANNELS 3 Zrotation Xrotation Yrotation
                        End Site
                        {
                          OFFSET 0 0 0
                        }
                      }
                    }
                  }
                }
                JOINT RightHandMiddle1
                {
                  OFFSET -9.5325 -1.52588e-05 1.71661e-05
                  CHANNELS 3 Zrotation Xrotation Yrotation
                  JOINT RightHandMiddle2
                  {
                    OFFSET -3.69823 1.52588e-05 -2.28882e-05
                    CHANNELS 3 Zrotation Xrotation Yrotation
                    JOINT RightHandMiddle3
                    {
                      OFFSET -2.95093 0 0
                      CHANNELS 3 Zrotation Xrotation Yrotation
                      JOINT RightHandMiddle4
                      {
                        OFFSET -2.8339 0 5.29289e-05
                        CHANNELS 3 Zrotation Xrotation Yrotation
                        End Site
                        {
                          OFFSET 0 0 0
                        }
                      }
                    }
                  }
                }
                JOINT RightHandIndex1
                {
                  OFFSET -9.10828 -0.5168 2.26012
                  CHANNELS 3 Zrotation Xrotation Yrotation
                  JOINT RightHandIndex2
                  {
                    OFFSET -3.67641 3.05176e-05 3.19481e-05
                    CHANNELS 3 Zrotation Xrotation Yrotation
                    JOINT RightHandIndex3
                    {
                      OFFSET -2.88306 -4.57764e-05 4.1008e-05
                      CHANNELS 3 Zrotation Xrotation Yrotation
                      JOINT RightHandIndex4
                      {
                        OFFSET -2.39272 1.52588e-05 2.81334e-05
                        CHANNELS 3 Zrotation Xrotation Yrotation
                        End Site
                        {
                          OFFSET 0 0 0
                        }
                      }
                    }
                  }
                }
                JOINT RightHandThumb1
                {
                  OFFSET -2.46481 -1.57272 2.68263
                  CHANNELS 3 Zrotation Xrotation Yrotation
                  JOINT RightHandThumb2
                  {
                    OFFSET -3.22977 -1.8647 1.86472
                    CHANNELS 3 Zrotation Xrotation Yrotation
                    JOINT RightHandThumb3
                    {
                      OFFSET -2.6526 -1.53145 1.53145
                      CHANNELS 3 Zrotation Xrotation Yrotation
                      JOINT RightHandThumb4
                      {
                        OFFSET -1.95458 -1.12846 1.12851
                        CHANNELS 3 Zrotation Xrotation Yrotation
                        End Site
                        {
                          OFFSET 0 0 0
                        }
                      }
                    }
                  }
                }
              }
            }
          }
        }
      }
    }
  }
  JOINT LeftUpLeg
  {
    OFFSET 8.20778 -6.75172 -1.59956
    CHANNELS 3 Zrotation Xrotation Yrotation
    JOINT LeftLeg
    {
      OFFSET 0 -44.3705 0.284636
      CHANNELS 3 Zrotation Xrotation Yrotation
      JOINT LeftFoot
      {
        OFFSET 0 -44.4279 -2.98219
        CHANNELS 3 Zrotation Xrotation Yrotation
        JOINT LeftToeBase
        {
          OFFSET 0 -8.72867 10.7106
          CHANNELS 3 Zrotation Xrotation Yrotation
          End Site
          {
            OFFSET 0 -0.000676683 9.27814
          }
        }
      }
    }
  }
  JOINT RightUpLeg
  {
    OFFSET -8.2078 -6.75166 -1.59956
    CHANNELS 3 Zrotation Xrotation Yrotation
    JOINT RightLeg
    {
      OFFSET 0 -44.3705 0.286159
      CHANNELS 3 Zrotation Xrotation Yrotation
      JOINT RightFoot
      {
        OFFSET 0 -44.4277 -2.98379
        CHANNELS 3 Zrotation Xrotation Yrotation
        JOINT RightToeBase
        {
          OFFSET 0 -8.72867 10.7106
          CHANNELS 3 Zrotation Xrotation Yrotation
          End Site
          {
            OFFSET 0 -0.000676369 9.27812
          }
        }
      }
    }
  }
}
MOTION
Frames:	4
Frame Time:	0.0333333
-0.527532 88.0812 2.16026 -8.00102 11.8655 -12.458 1.89278 3.8436 1.72196 1.82595 6.95683 3.37891 1.98771 7.75695 3.78964 -2.70205 -2.3319 -1.18169 3.54301 -20.3834 10.9944 4.96962e-17 -1.59028e-15 -0 4.96962e-17 -1.59028e-15 -0 4.96962e-17 -1.59028e-15 -0 3.20677 0.339571 1.14173 -38.0089 -2.68324 2.3489 0.0820807 -0.112648 -40.3997 -3.7093 40.6507 -7.97584 0.0136363 -1.11745 -8.52424 1.28608 0.208637 1.61663 3.18055e-15 -3.18055e-15 3.97569e-15 3.18055e-15 -4.77083e-15 -5.74809e-05 0.00787673 3.98938 -2.01091 -27.707 -0.338116 0.642643 1.59028e-15 0 1.88845e-15 1.19271e-15 3.18055e-15 1.59028e-15 -8.07457 -0.0942436 3.39299 -32.0168 0.84854 -2.10607 0 0 -2.38542e-15 -1.32417e-31 3.18055e-15 2.38542e-15 -13.6787 -16.0522 8.39389 -33.6589 1.51828 -2.6762 1.76556e-31 -6.36111e-15 1.59028e-15 3.18055e-15 -3.18055e-15 -0 -22.1616 -9.24647 15.4218 -32.762 3.05676 -4.4531 -0 -9.54166e-15 -0 0 0 -0 -8.51378 -0.971665 7.82663 48.9838 0.538277 16.1037 -0.0102754 -0.00988413 76.7203 -13.0096 23.3788 6.54831 22.0646 -3.87582 5.22238 24.3689 2.52936 5.34569 -3.18055e-15 -2.78299e-15 7.95139e-16 3.18055e-15 7.95139e-16 -4.57205e-15 18.9713 -9.52392 0.518032 23.7456 1.00781 2.6347 4.30356e-31 -4.77083e-15 5.1684e-15 -3.18055e-15 -4.77083e-15 -2.38542e-15 14.0276 -4.04951 0.180543 25.2529 0.323956 1.2128 3.18064e-15 3.57812e-15 -0.00133167 -6.36111e-15 5.56597e-15 -1.19271e-15 2.10612 -4.25961 -2.12126 24.3016 -0.45265 -1.09839 -9.54166e-15 -7.95139e-16 1.59028e-15 3.18055e-15 4.77083e-15 -7.95139e-16 -1.14698 10.2175 7.48862 -1.3807 -0.752298 -0.157274 -0.000815688 3.97569e-15 -0.000803001 -0 -7.95139e-16 -0 22.5746 -33.7677 13.743 -29.6787 85.0769 30.2711 -7.72887 8.6853 -4.64653 -0.358308 -1.83078 -0.492968 12.0607 -18.6695 5.2525 2.36736 45.9045 -1.76309 -2.62869 -11.3583 3.8105 -0.627766 -18.7224 -0.254484 
-0.902633 87.1061 15.0423 -10.6451 17.764 -19.5151 2.84096 5.36552 2.44952 2.53012 10.8173 5.51057 2.53012 10.8173 5.51057 -3.95584 -3.74941 -2.39851 7.34518 -27.9918 16.2317 4.47266e-16 0 -3.97569e-16 4.47266e-16 0 -3.97569e-16 4.47266e-16 0 -3.97569e-16 4.43912 0.50059 1.99808 -59.9861 -2.60925 4.83716 0.0742315 -0.111778 -58.8068 5.0877 62.1089 -20.2906 -0.391555 -1.91021 -11.53 2.03714 0.331357 2.56778 -6.92022e-05 -4.77083e-15 -7.50571e-05 -3.31043e-32 -1.59028e-15 -1.19271e-15 0.0749363 5.65764 -2.86172 -43.9716 -0.536482 1.0205 4.41391e-32 -3.18055e-15 7.95139e-16 -0 -1.59028e-15 -0 -11.4946 -0.136229 4.81296 -50.7767 1.34373 -3.34288 0 0 -0 -3.18055e-15 -7.95139e-16 -0 -17.9355 -22.5329 12.4052 -53.3284 2.40269 -4.2499 -0 -1.59028e-15 -0 -3.18055e-15 -3.18055e-15 -0 -29.972 -12.6345 22.1622 -51.7554 4.8268 -7.08944 6.36111e-15 -3.97569e-15 2.38542e-15 3.18055e-15 -7.95139e-16 1.59028e-15 -11.4091 -1.3525 10.7057 76.179 0.114514 26.0327 -0.0165313 0.0172178 108.463 -23.8995 37.158 12.2485 31.5402 -5.4794 7.42317 38.4848 3.99078 8.50285 -3.18055e-15 0 4.77083e-15 8.82781e-32 3.18055e-15 -1.59028e-15 27.0082 -13.5114 0.742173 37.6547 1.59692 4.18426 -6.36111e-15 -1.59028e-15 3.97569e-15 8.82781e-32 -1.59028e-15 3.18055e-15 19.9413 -5.7464 0.252861 40.0754 0.513461 1.92488 5.58996e-20 1.59028e-15 -0.00201399 -9.54166e-15 4.77083e-15 1.59028e-15 2.9261 -6.03929 -3.02532 38.5804 -0.718507 -1.7444 -9.54166e-15 8.74653e-15 -1.59028e-15 -3.18055e-15 9.54166e-15 -7.95139e-16 -2.4153 14.3898 10.8131 -2.19339 -1.19359 -0.249385 -0.00123235 2.38542e-15 -0.00122652 -3.18055e-15 -2.38542e-15 -0 39.7457 -47.5076 24.6698 -175.592 43.8653 174.11 -7.7024 9.27364 -7.84847 0.0658848 -1.46792 -0.0283889 19.9438 -27.1909 7.46486 4.91751 63.6879 -3.9604 -3.79265 -17.8701 6.69227 -1.14657 -28.2016 -0.337836 
-1.08222 87.3136 29.1068 -12.7672 15.3815 -14.5057 4.2381 4.77073 2.43023 2.65326 9.67072 5.98165 2.65326 9.67072 5.98164 -1.81482 -4.00932 -5.34278 5.56064 -25.2295 13.4058 6.95746e-16 1.59028e-15 -0 6.95746e-16 1.59028e-15 -0 6.95746e-16 1.59028e-15 -0 3.71276 0.614728 4.37691 -59.5978 6.58715 11.1487 0.0602051 -0.119742 -55.5003 4.90544 54.8774 -13.7383 -2.20553 -4.08888 -7.82222 2.0375 0.332516 2.56887 -7.36916e-05 0 -7.29953e-05 -3.18055e-15 0 1.19271e-15 -0.0543643 5.60762 -2.84298 -43.8011 -0.533818 1.01934 3.18055e-15 9.93923e-17 -2.43511e-15 3.44836e-32 7.95139e-16 -2.48481e-15 -11.644 -0.152146 4.75786 -50.5255 1.32899 -3.32805 -6.36111e-15 3.18055e-15 -0 3.31043e-32 2.38542e-15 -7.95139e-16 -17.9876 -22.3604 12.2858 -52.9679 2.37607 -4.23398 0 0 -3.18055e-15 -3.18055e-15 6.36111e-15 -3.18055e-15 -29.8167 -12.5591 21.9906 -51.4372 4.79478 -7.09869 6.36111e-15 3.97569e-15 -1.59028e-15 3.18055e-15 3.97569e-15 -6.36111e-15 -7.53796 -1.25428 8.05865 67.9935 -3.67849 28.6879 -0.0221107 0.00303589 104.915 -24.9643 39.4667 14.0704 31.3717 -5.44801 7.32617 38.494 3.99221 8.50379 6.36111e-15 6.36111e-15 -1.59028e-15 -3.53113e-31 -3.18055e-15 -6.36111e-15 26.9832 -13.3723 0.713375 37.566 1.59047 4.17704 7.06225e-31 6.36111e-15 -6.36111e-15 3.18055e-15 1.59028e-15 -1.59028e-15 19.9394 -5.69497 0.225287 39.9293 0.508547 1.91707 3.18061e-15 1.59028e-15 -0.00201992 -3.18055e-15 7.95139e-15 3.18055e-15 3.10377 -5.97845 -3.04041 38.5342 -0.717272 -1.74324 6.62086e-32 2.38542e-15 -1.59028e-15 -1.10348e-31 -3.97569e-15 -1.59028e-15 -2.19273 14.3709 10.7988 -2.18537 -1.18665 -0.247009 -0.00120549 -1.59028e-15 -0.00120958 8.82781e-32 -1.59028e-15 3.18055e-15 46.0566 -53.4722 30.473 -176.394 44.8379 171.563 7.44039 -9.42639 -15.6775 3.02952 6.67302 4.27425 16.607 -13.9113 -0.555098 2.6369 54.1396 -3.11554 -5.84603 -17.2404 9.2506 -2.33388 -38.3117 -0.0181261 
-1.10304 89.2593 43.1288 -12.7606 12.3847 -10.209 4.13549 4.04892 2.77102 2.6168 8.19884 6.08383 2.6168 8.19884 6.08383 0.260285 -3.73421 -7.85959 3.78027 -22.2634 10.5499 1.98785e-16 7.95139e-16 3.97569e-16 1.98785e-16 7.95139e-16 3.97569e-16 1.98785e-16 7.95139e-16 3.97569e-16 3.77467 0.519834 5.84682 -59.8375 16.9871 18.3638 0.0489189 -0.135306 -57.792 7.70979 43.6094 -8.97586 -2.77639 -5.3514 -5.93519 2.03923 0.343772 2.58852 -8.09552e-05 -3.18055e-15 -7.96579e-05 -6.36111e-15 3.18055e-15 -0 0.146201 5.55552 -2.83413 -43.3749 -0.527041 1.01645 2.20695e-32 1.59028e-15 -7.95139e-16 -3.18055e-15 -3.18055e-15 -7.95139e-16 -11.541 -0.165344 4.7296 -50.0304 1.30022 -3.29872 3.18055e-15 -1.59028e-15 3.18055e-15 -1.76556e-31 -6.36111e-15 -1.59028e-15 -17.7779 -22.1761 12.2097 -52.3639 2.33162 -4.20696 -4.77083e-15 9.54166e-15 6.36111e-15 -1.59028e-15 -3.18055e-15 -0 -29.4137 -12.4331 21.8686 -50.865 4.74067 -7.12268 -1.59028e-15 5.56597e-15 -0 3.18055e-15 1.27222e-14 -0 -4.7629 -1.09531 5.17899 60.347 -1.46147 24.804 -0.0265404 -0.0151243 103.196 -25.0368 36.4619 14.5569 31.1979 -5.41531 7.24956 38.5186 3.99589 8.50641 3.18055e-15 -9.54166e-15 1.59028e-15 -0 0 1.59028e-15 26.9554 -13.2327 0.692336 37.4925 1.58508 4.17106 -6.36111e-15 3.18055e-15 -4.77083e-15 0 0 -1.59028e-15 19.938 -5.64353 0.193779 39.7986 0.504169 1.91003 -1.27222e-14 0 -0.00201723 6.36111e-15 9.54166e-15 -6.36111e-15 3.28099 -5.91744 -3.06476 38.5044 -0.716474 -1.74251 -3.18055e-15 0 -1.27222e-14 3.53113e-31 -3.18055e-15 6.36111e-15 -1.95889 14.3612 10.7799 -2.1773 -1.17973 -0.244595 -0.00121397 0 -0.00123268 -9.54166e-15 1.59028e-15 -3.18055e-15 45.4075 -59.3027 33.8583 -173.253 59.925 168.974 13.9083 -19.9847 -12.2972 2.53374 11.0733 -2.52759 13.5157 4.00574 -5.06227 0.753031 39.6511 -2.47602 -1.94054 -14.2047 11.8125 -3.07479 -34.3506 -0.619272 
